<?xml version="1.0" encoding="utf-8"?>
<!-- Generator: Adobe Illustrator 28.2.0, SVG Export Plug-In . SVG Version: 6.00 Build 0)  -->
<svg version="1.1" id="Layer_1" xmlns="http://www.w3.org/2000/svg" xmlns:xlink="http://www.w3.org/1999/xlink" x="0px" y="0px"
	 viewBox="0 0 307.3 164.3" style="enable-background:new 0 0 307.3 164.3;" xml:space="preserve">
<style type="text/css">
	.st0{fill:#FFFFFF;stroke:#000000;stroke-miterlimit:10;}
	.st1{stroke:#000000;stroke-width:2;stroke-miterlimit:10;}
	.st2{font-family:'MyriadPro-Regular';}
	.st3{font-size:10.434px;}
</style>
<g>
	<path class="st0" d="M151.8,85.2l43.3,0l5.9,2.2l-3.3,33.5l73.1,34.4l30.2-64.8c0,0,1.5-1.8,0.4-10.3c-1.2-9-7.8-14.6-8.1-14.9
		c-0.3-0.3-53.5-53.4-53.5-53.4s-1.7-2.7-7.1-4.2c-5.9-1.7-18-1.2-18-1.2l-62.9,0.2"/>
	<path class="st0" d="M156.8,85.2l-43.3,0l-5.9,2.2l3.3,33.5l-73.1,34.4L7.5,90.5c0,0-1.5-1.8-0.4-10.3c1.2-9,7.8-14.6,8.1-14.9
		c0.3-0.3,53.5-53.4,53.5-53.4s1.7-2.7,7.1-4.2c5.9-1.7,18-1.2,18-1.2l62.9,0.2"/>
</g>
<line class="st1" x1="25.8" y1="125" x2="105.6" y2="87"/>
<line class="st1" x1="106.4" y1="83.5" x2="72.3" y2="12.9"/>
<line class="st1" x1="281.5" y1="123.8" x2="203.7" y2="87.7"/>
<line class="st1" x1="202.4" y1="83.5" x2="237.1" y2="14.4"/>
<polyline class="st0" points="107.7,80.1 107.7,77.8 107.7,74.5 "/>
<polyline class="st0" points="201.1,80.1 201.1,77.5 201.1,74.9 "/>
<path class="st0" d="M184.8,77.5h16.3H184.8z"/>
<line class="st0" x1="107.3" y1="77.5" x2="184.8" y2="77.5"/>
<text transform="matrix(1 0 0 1 139.0703 75.7332)" class="st2 st3">33mm</text>
</svg>
